<svg width="33" height="33" viewBox="0 0 33 33" fill="none" xmlns="http://www.w3.org/2000/svg">
<g filter="url(#filter0_d_682_136)">
<mask id="path-1-outside-1_682_136" maskUnits="userSpaceOnUse" x="0.25" y="0.25" width="33" height="31" fill="black">
<rect fill="white" x="0.25" y="0.25" width="33" height="31"/>
<path fill-rule="evenodd" clip-rule="evenodd" d="M3.05287 1.2598C2.49214 1.36232 1.99001 1.71516 1.65695 2.24071C1.32389 2.76626 1.18718 3.42147 1.2769 4.06219C1.36662 4.70291 1.67541 5.27667 2.13535 5.65724C2.59529 6.03781 3.1687 6.19402 3.72943 6.0915L6.5864 6.09153L6.96696 7.29945L8.70065 13.3391L10.4343 19.3787C10.6035 20.0068 11.3223 20.5866 11.872 20.5866H26.6718C27.2638 20.5866 27.9403 20.0068 28.1095 19.3787L31.5345 7.29945C31.7037 6.67133 31.45 6.09153 30.858 6.09153H12.0834L10.4766 2.6127C10.3055 2.21341 10.0412 1.87582 9.71294 1.63712C9.38467 1.39842 9.00512 1.26786 8.61608 1.25983L3.64486 1.2598C3.51826 1.24673 3.39089 1.24673 3.26429 1.2598C3.1798 1.254 3.09508 1.254 3.01058 1.2598L3.05287 1.2598ZM28.2501 27.25C28.2501 28.9069 26.907 30.25 25.2501 30.25C23.5933 30.25 22.2501 28.9069 22.2501 27.25C22.2501 25.5931 23.5933 24.25 25.2501 24.25C26.907 24.25 28.2501 25.5931 28.2501 27.25ZM14.2501 30.25C15.907 30.25 17.2501 28.9069 17.2501 27.25C17.2501 25.5931 15.907 24.25 14.2501 24.25C12.5933 24.25 11.2501 25.5931 11.2501 27.25C11.2501 28.9069 12.5933 30.25 14.2501 30.25Z"/>
</mask>
<path fill-rule="evenodd" clip-rule="evenodd" d="M3.05287 1.2598C2.49214 1.36232 1.99001 1.71516 1.65695 2.24071C1.32389 2.76626 1.18718 3.42147 1.2769 4.06219C1.36662 4.70291 1.67541 5.27667 2.13535 5.65724C2.59529 6.03781 3.1687 6.19402 3.72943 6.0915L6.5864 6.09153L6.96696 7.29945L8.70065 13.3391L10.4343 19.3787C10.6035 20.0068 11.3223 20.5866 11.872 20.5866H26.6718C27.2638 20.5866 27.9403 20.0068 28.1095 19.3787L31.5345 7.29945C31.7037 6.67133 31.45 6.09153 30.858 6.09153H12.0834L10.4766 2.6127C10.3055 2.21341 10.0412 1.87582 9.71294 1.63712C9.38467 1.39842 9.00512 1.26786 8.61608 1.25983L3.64486 1.2598C3.51826 1.24673 3.39089 1.24673 3.26429 1.2598C3.1798 1.254 3.09508 1.254 3.01058 1.2598L3.05287 1.2598ZM28.2501 27.25C28.2501 28.9069 26.907 30.25 25.2501 30.25C23.5933 30.25 22.2501 28.9069 22.2501 27.25C22.2501 25.5931 23.5933 24.25 25.2501 24.25C26.907 24.25 28.2501 25.5931 28.2501 27.25ZM14.2501 30.25C15.907 30.25 17.2501 28.9069 17.2501 27.25C17.2501 25.5931 15.907 24.25 14.2501 24.25C12.5933 24.25 11.2501 25.5931 11.2501 27.25C11.2501 28.9069 12.5933 30.25 14.2501 30.25Z" fill="#FCFCFC"/>
<path d="M1.65695 2.24071L0.812284 1.70542L0.812284 1.70542L1.65695 2.24071ZM3.05287 1.2598L3.23271 2.2435L3.05287 0.259804L3.05287 1.2598ZM1.2769 4.06219L2.26724 3.92352L1.2769 4.06219ZM3.72943 6.0915L3.72944 5.0915L3.63877 5.0915L3.54959 5.10781L3.72943 6.0915ZM6.5864 6.09153L7.54018 5.79103L7.3198 5.09153L6.58641 5.09153L6.5864 6.09153ZM6.96696 7.29945L7.92815 7.02354L7.9246 7.0112L7.92075 6.99896L6.96696 7.29945ZM8.70065 13.3391L7.73946 13.615L7.73946 13.615L8.70065 13.3391ZM10.4343 19.3787L11.3999 19.1187L11.3978 19.1107L11.3955 19.1028L10.4343 19.3787ZM28.1095 19.3787L27.1473 19.1059L27.1439 19.1187L28.1095 19.3787ZM31.5345 7.29945L32.4967 7.57227L32.5001 7.55947L31.5345 7.29945ZM12.0834 6.09153L11.1756 6.51085L11.4438 7.09153H12.0834V6.09153ZM10.4766 2.6127L9.55748 3.00665L9.56295 3.01942L9.56878 3.03202L10.4766 2.6127ZM9.71294 1.63712L9.12484 2.44591L9.12484 2.44591L9.71294 1.63712ZM8.61608 1.25983L8.63673 0.26004L8.62641 0.259827L8.61608 0.259827L8.61608 1.25983ZM3.64486 1.2598L3.54215 2.25452L3.59336 2.2598L3.64485 2.2598L3.64486 1.2598ZM3.26429 1.2598L3.19577 2.25745L3.28152 2.26334L3.36701 2.25452L3.26429 1.2598ZM3.01058 1.2598L2.94206 0.262154L3.01058 2.2598L3.01058 1.2598ZM2.50162 2.77601C2.70057 2.46207 2.97325 2.29094 3.23271 2.2435L2.87303 0.276109C2.01102 0.433705 1.27945 0.968258 0.812284 1.70542L2.50162 2.77601ZM2.26724 3.92352C2.20898 3.50743 2.30088 3.09276 2.50162 2.77601L0.812284 1.70542C0.346902 2.43977 0.16539 3.3355 0.286562 4.20086L2.26724 3.92352ZM2.77285 4.88679C2.52211 4.67932 2.32549 4.33952 2.26724 3.92352L0.286562 4.20086C0.407746 5.0663 0.828712 5.87402 1.49785 6.42769L2.77285 4.88679ZM3.54959 5.10781C3.29481 5.15439 3.01754 5.08925 2.77285 4.88679L1.49785 6.42769C2.17304 6.98636 3.04258 7.23365 3.90927 7.0752L3.54959 5.10781ZM6.58641 5.09153L3.72944 5.0915L3.72942 7.0915L6.58639 7.09153L6.58641 5.09153ZM7.92075 6.99896L7.54018 5.79103L5.63262 6.39202L6.01318 7.59995L7.92075 6.99896ZM9.66183 13.0632L7.92815 7.02354L6.00578 7.57536L7.73946 13.615L9.66183 13.0632ZM11.3955 19.1028L9.66183 13.0632L7.73946 13.615L9.47315 19.6546L11.3955 19.1028ZM11.872 19.5866C11.9048 19.5866 11.894 19.5935 11.8386 19.5694C11.7866 19.5468 11.7193 19.5069 11.6487 19.4483C11.4933 19.3196 11.4173 19.1832 11.3999 19.1187L9.46873 19.6387C9.6205 20.2024 9.98846 20.6699 10.3723 20.9881C10.7444 21.2966 11.2807 21.5866 11.872 21.5866V19.5866ZM26.6718 19.5866H11.872V21.5866H26.6718V19.5866ZM27.1439 19.1187C27.1221 19.1995 27.0442 19.3356 26.9035 19.4546C26.7557 19.5795 26.6593 19.5866 26.6718 19.5866V21.5866C27.2763 21.5866 27.8141 21.3038 28.1949 20.9818C28.5828 20.6538 28.9277 20.186 29.0751 19.6387L27.1439 19.1187ZM30.5725 7.02665L27.1474 19.1059L29.0715 19.6515L32.4966 7.57225L30.5725 7.02665ZM30.858 7.09153C30.8379 7.09153 30.7804 7.08494 30.7135 7.04385C30.6483 7.00373 30.6113 6.95357 30.5946 6.92155C30.5796 6.89271 30.5839 6.88529 30.5855 6.91042C30.5871 6.9346 30.5853 6.97883 30.5689 7.03943L32.5001 7.55947C32.6327 7.06719 32.6279 6.4963 32.3688 5.99833C32.0844 5.45191 31.5357 5.09153 30.858 5.09153V7.09153ZM12.0834 7.09153H30.858V5.09153H12.0834V7.09153ZM9.56878 3.03202L11.1756 6.51085L12.9913 5.67221L11.3845 2.19338L9.56878 3.03202ZM9.12484 2.44591C9.29714 2.5712 9.45213 2.76084 9.55748 3.00665L11.3957 2.21875C11.1588 1.66597 10.7853 1.18045 10.301 0.828335L9.12484 2.44591ZM8.59542 2.25961C8.7711 2.26324 8.95422 2.32184 9.12484 2.44591L10.301 0.828336C9.81512 0.475002 9.23913 0.272486 8.63673 0.26004L8.59542 2.25961ZM3.64485 2.2598L8.61607 2.25983L8.61608 0.259827L3.64486 0.259804L3.64485 2.2598ZM3.36701 2.25452C3.42531 2.24849 3.48384 2.24849 3.54215 2.25452L3.74757 0.265093C3.55268 0.244969 3.35647 0.244969 3.16158 0.265093L3.36701 2.25452ZM3.07911 2.25745C3.11797 2.25478 3.15691 2.25478 3.19577 2.25745L3.33282 0.262154C3.20269 0.253217 3.07218 0.253217 2.94206 0.262154L3.07911 2.25745ZM3.05287 0.259804L3.01058 0.259804L3.01058 2.2598L3.05287 2.2598L3.05287 0.259804ZM25.2501 31.25C27.4593 31.25 29.2501 29.4591 29.2501 27.25H27.2501C27.2501 28.3546 26.3547 29.25 25.2501 29.25V31.25ZM21.2501 27.25C21.2501 29.4591 23.041 31.25 25.2501 31.25V29.25C24.1456 29.25 23.2501 28.3546 23.2501 27.25H21.2501ZM25.2501 23.25C23.041 23.25 21.2501 25.0409 21.2501 27.25H23.2501C23.2501 26.1454 24.1456 25.25 25.2501 25.25V23.25ZM29.2501 27.25C29.2501 25.0409 27.4593 23.25 25.2501 23.25V25.25C26.3547 25.25 27.2501 26.1454 27.2501 27.25H29.2501ZM16.2501 27.25C16.2501 28.3546 15.3547 29.25 14.2501 29.25V31.25C16.4593 31.25 18.2501 29.4591 18.2501 27.25H16.2501ZM14.2501 25.25C15.3547 25.25 16.2501 26.1454 16.2501 27.25H18.2501C18.2501 25.0409 16.4593 23.25 14.2501 23.25V25.25ZM12.2501 27.25C12.2501 26.1454 13.1456 25.25 14.2501 25.25V23.25C12.041 23.25 10.2501 25.0409 10.2501 27.25H12.2501ZM14.2501 29.25C13.1456 29.25 12.2501 28.3546 12.2501 27.25H10.2501C10.2501 29.4591 12.041 31.25 14.2501 31.25V29.25Z" fill="#46A109" mask="url(#path-1-outside-1_682_136)"/>
</g>
<defs>
<filter id="filter0_d_682_136" x="0.25" y="0.25" width="32.3359" height="32" filterUnits="userSpaceOnUse" color-interpolation-filters="sRGB">
<feFlood flood-opacity="0" result="BackgroundImageFix"/>
<feColorMatrix in="SourceAlpha" type="matrix" values="0 0 0 0 0 0 0 0 0 0 0 0 0 0 0 0 0 0 127 0" result="hardAlpha"/>
<feOffset dy="1"/>
<feComposite in2="hardAlpha" operator="out"/>
<feColorMatrix type="matrix" values="0 0 0 0 0.27451 0 0 0 0 0.631373 0 0 0 0 0.0352941 0 0 0 1 0"/>
<feBlend mode="normal" in2="BackgroundImageFix" result="effect1_dropShadow_682_136"/>
<feBlend mode="normal" in="SourceGraphic" in2="effect1_dropShadow_682_136" result="shape"/>
</filter>
</defs>
</svg>
