<svg width="31" height="32" viewBox="0 0 31 32" fill="none" xmlns="http://www.w3.org/2000/svg">
<g filter="url(#filter0_d_682_135)">
<path d="M8.91666 29.5C8.04221 29.5 7.33333 28.7911 7.33333 27.9167V27.9167C7.33333 27.0422 8.04222 26.3333 8.91667 26.3333H13.6667V21.425C12.3736 21.1347 11.2191 20.5872 10.2031 19.7823C9.18715 18.9774 8.44167 17.9681 7.96667 16.7542C5.9875 16.5167 4.3316 15.6524 2.99896 14.1615C1.66632 12.6705 1 10.9222 1 8.91667V8.91667C1 6.29331 3.12665 4.16667 5.75 4.16667H7.33333V4.16667C7.33333 2.41777 8.7511 1 10.5 1H20C21.7489 1 23.1667 2.41777 23.1667 4.16667V4.16667H24.75C27.3734 4.16667 29.5 6.29331 29.5 8.91667V8.91667C29.5 10.9222 28.8337 12.6705 27.501 14.1615C26.1684 15.6524 24.5125 16.5167 22.5333 16.7542C22.0583 17.9681 21.3128 18.9774 20.2969 19.7823C19.2809 20.5872 18.1264 21.1347 16.8333 21.425V26.3333H21.5833C22.4578 26.3333 23.1667 27.0422 23.1667 27.9167V27.9167C23.1667 28.7911 22.4578 29.5 21.5833 29.5H8.91666ZM7.33333 13.35V7.33333H5.75C4.87555 7.33333 4.16667 8.04222 4.16667 8.91667V8.91667C4.16667 9.91944 4.45694 10.8233 5.0375 11.6281C5.61806 12.433 6.38333 13.0069 7.33333 13.35ZM23.1667 13.35C24.1167 13.0069 24.8819 12.433 25.4625 11.6281C26.0431 10.8233 26.3333 9.91944 26.3333 8.91667V8.91667C26.3333 8.04222 25.6245 7.33333 24.75 7.33333H23.1667V13.35Z" fill="#FCFCFC"/>
<path d="M10.5 0.5C8.64456 0.5 7.111 1.87816 6.86714 3.66667H5.75C2.85051 3.66667 0.5 6.01717 0.5 8.91667C0.5 11.0448 1.21134 12.9117 2.62617 14.4947C3.97339 16.002 5.64196 16.9107 7.61417 17.2108C8.12368 18.3856 8.88446 19.3755 9.89264 20.1742C10.8652 20.9447 11.9581 21.4923 13.1667 21.8167V25.8333H8.91667C7.76607 25.8333 6.83333 26.7661 6.83333 27.9167C6.83333 29.0673 7.76607 30 8.91666 30H21.5833C22.7339 30 23.6667 29.0673 23.6667 27.9167C23.6667 26.7661 22.7339 25.8333 21.5833 25.8333H17.3333V21.8167C18.5419 21.4923 19.6348 20.9447 20.6074 20.1742C21.6155 19.3755 22.3763 18.3856 22.8858 17.2108C24.858 16.9107 26.5266 16.002 27.8738 14.4947C29.2887 12.9117 30 11.0448 30 8.91667C30 6.01717 27.6495 3.66667 24.75 3.66667H23.6329C23.389 1.87816 21.8554 0.5 20 0.5H10.5ZM5.75 7.83333H6.83333V12.577C6.28178 12.2713 5.81996 11.8582 5.44301 11.3356C4.92457 10.6169 4.66667 9.81562 4.66667 8.91667C4.66667 8.31836 5.15169 7.83333 5.75 7.83333ZM25.057 11.3356C24.68 11.8582 24.2182 12.2713 23.6667 12.577V7.83333H24.75C25.3483 7.83333 25.8333 8.31836 25.8333 8.91667C25.8333 9.81562 25.5754 10.6169 25.057 11.3356Z" stroke="#46A109"/>
</g>
<defs>
<filter id="filter0_d_682_135" x="0" y="0" width="30.5" height="31.5" filterUnits="userSpaceOnUse" color-interpolation-filters="sRGB">
<feFlood flood-opacity="0" result="BackgroundImageFix"/>
<feColorMatrix in="SourceAlpha" type="matrix" values="0 0 0 0 0 0 0 0 0 0 0 0 0 0 0 0 0 0 127 0" result="hardAlpha"/>
<feOffset dy="1"/>
<feComposite in2="hardAlpha" operator="out"/>
<feColorMatrix type="matrix" values="0 0 0 0 0.27451 0 0 0 0 0.631373 0 0 0 0 0.0352941 0 0 0 1 0"/>
<feBlend mode="normal" in2="BackgroundImageFix" result="effect1_dropShadow_682_135"/>
<feBlend mode="normal" in="SourceGraphic" in2="effect1_dropShadow_682_135" result="shape"/>
</filter>
</defs>
</svg>
