<svg width="8" height="8" viewBox="0 0 8 8" fill="none" xmlns="http://www.w3.org/2000/svg">
<path d="M5.15556 2.84444H6.84444C7.16444 2.84444 7.43704 2.95704 7.66222 3.18222C7.88741 3.40741 8 3.68 8 4C8 4.32 7.88741 4.59259 7.66222 4.81778C7.43704 5.04296 7.16444 5.15556 6.84444 5.15556H5.15556V6.84444C5.15556 7.16444 5.04296 7.43704 4.81778 7.66222C4.59259 7.88741 4.32 8 4 8C3.68 8 3.40741 7.88741 3.18222 7.66222C2.95704 7.43704 2.84444 7.16444 2.84444 6.84444V5.15556H1.15556C0.835556 5.15556 0.562963 5.04296 0.337778 4.81778C0.112593 4.59259 0 4.32 0 4C0 3.68 0.112593 3.40741 0.337778 3.18222C0.562963 2.95704 0.835556 2.84444 1.15556 2.84444H2.84444V1.15556C2.84444 0.835555 2.95704 0.562963 3.18222 0.337778C3.40741 0.112593 3.68 0 4 0C4.32 0 4.59259 0.112593 4.81778 0.337778C5.04296 0.562963 5.15556 0.835555 5.15556 1.15556V2.84444Z" fill="#FCFCFC"/>
</svg>
